<!DOCTYPE svg PUBLIC "-//W3C//DTD SVG 1.1//EN" "http://www.w3.org/Graphics/SVG/1.1/DTD/svg11.dtd">
<!-- Uploaded to: SVG Repo, www.svgrepo.com, Transformed by: SVG Repo Mixer Tools -->
<svg fill="#000000" height="256px" width="256px" version="1.1" id="Layer_1" xmlns="http://www.w3.org/2000/svg" xmlns:xlink="http://www.w3.org/1999/xlink" viewBox="-40.22 -40.22 482.60 482.60" xml:space="preserve" stroke="#000000" stroke-width="0.00402161" transform="matrix(1, 0, 0, 1, 0, 0)">
<g id="SVGRepo_bgCarrier" stroke-width="0">
<path transform="translate(-40.22, -40.22), scale(15.081249999999999)" d="M16,26.885243750280804C18.37633166069454,27.31652691560586,21.272070349639126,28.625086446583147,23.096954097881408,27.043076131915996C24.99259224985791,25.399728103751485,23.85872170097445,22.23783212962406,24.22399954842635,19.755774749332062C24.47581885086946,18.044666445094677,24.545653073288126,16.40941746021146,24.910679814706143,14.718837657906107C25.53075233010407,11.847042384978545,28.110543495948797,9.133277249225483,27.114372506720798,6.369341400805421C26.150686204235278,3.6955362540250536,22.94706561459447,2.427377998165359,20.207659590110467,1.6700274283708065C17.49159867575506,0.9191309702704621,14.554208051105352,1.1212554347370738,11.940397834026268,2.1742647083760875C9.459776962029288,3.1736168287126345,7.3642399046730045,5.0480206459578,6.046343641457192,7.375107668484032C4.852510266804395,9.483129544526244,5.299250945353902,12.014508499014106,5.005705576684877,14.419259104137302C4.719784623492022,16.761549797822735,3.2526393058084233,19.230967844402215,4.34370863864549,21.323249899036C5.435336669838531,23.416603337961305,8.254914783945148,23.71936901283326,10.385657014790691,24.7360882092873C12.23157920117109,25.616900770696287,13.987573364180669,26.520006126326017,16,26.885243750280804" fill="#00ff40" strokewidth="0"/>
</g>
<g id="SVGRepo_tracerCarrier" stroke-linecap="round" stroke-linejoin="round"/>
<g id="SVGRepo_iconCarrier"> <g> <g> <g> <path d="M201.08,49.778c-38.794,0-70.355,31.561-70.355,70.355c0,18.828,7.425,40.193,19.862,57.151 c14.067,19.181,32,29.745,50.493,29.745c18.494,0,36.426-10.563,50.494-29.745c12.437-16.958,19.862-38.323,19.862-57.151 C271.436,81.339,239.874,49.778,201.08,49.778z M201.08,192.029c-13.396,0-27.391-8.607-38.397-23.616 c-10.46-14.262-16.958-32.762-16.958-48.28c0-30.523,24.832-55.355,55.355-55.355s55.355,24.832,55.355,55.355 C256.436,151.824,230.372,192.029,201.08,192.029z"/> <path d="M201.08,0C109.387,0,34.788,74.598,34.788,166.292c0,91.693,74.598,166.292,166.292,166.292 s166.292-74.598,166.292-166.292C367.372,74.598,292.773,0,201.08,0z M201.08,317.584c-30.099-0.001-58.171-8.839-81.763-24.052 c0.82-22.969,11.218-44.503,28.824-59.454c6.996-5.941,17.212-6.59,25.422-1.615c8.868,5.374,18.127,8.099,27.52,8.099 c9.391,0,18.647-2.724,27.511-8.095c8.201-4.97,18.39-4.345,25.353,1.555c17.619,14.93,28.076,36.526,28.895,59.512 C259.25,308.746,231.178,317.584,201.08,317.584z M296.981,283.218c-3.239-23.483-15.011-45.111-33.337-60.64 c-11.89-10.074-29.1-11.256-42.824-2.939c-12.974,7.861-26.506,7.86-39.483-0.004c-13.74-8.327-30.981-7.116-42.906,3.01 c-18.31,15.549-30.035,37.115-33.265,60.563c-33.789-27.77-55.378-69.868-55.378-116.915C49.788,82.869,117.658,15,201.08,15 c83.423,0,151.292,67.869,151.292,151.292C352.372,213.345,330.778,255.448,296.981,283.218z"/> <path d="M302.806,352.372H99.354c-4.142,0-7.5,3.358-7.5,7.5c0,4.142,3.358,7.5,7.5,7.5h203.452c4.142,0,7.5-3.358,7.5-7.5 C310.307,355.73,306.948,352.372,302.806,352.372z"/> <path d="M302.806,387.161H99.354c-4.142,0-7.5,3.358-7.5,7.5c0,4.142,3.358,7.5,7.5,7.5h203.452c4.142,0,7.5-3.358,7.5-7.5 C310.307,390.519,306.948,387.161,302.806,387.161z"/> </g> </g> </g> </g>
</svg>